<svg width="889px" height="1007px" viewBox="0 0 889 1007" xmlns="http://www.w3.org/2000/svg" xmlns:xlink="http://www.w3.org/1999/xlink" style="width: 889px; height: 1007px;"><g transform="matrix(1, 0, 0, 1, 0, 0)" clip-path="url(#mainClip14379)"><g transform="matrix(1, 0, 0, 1, 1, 1)"><g transform="matrix(1, 0, 0, 1, 0, 330.03072434186936)"><text x="0" y="12.390624690055848" style="font: 13px sans-serif" text-anchor="start" fill="black" stroke="none" transform="matrix(1, 0, 0, 1, 0, 0)">📄</text><path d="M 0,1.5 L 27,1.5" fill="none" stroke="black" stroke-width="3" stroke-linecap="butt" stroke-linejoin="miter" stroke-miterlimit="10" transform="matrix(1, 0, 0, 1, 1.5, 18.020832920074465)"></path></g><g transform="matrix(1, 0, 0, 1, 80, 0)"><g transform="matrix(1, 0, 0, 1, 0, 0)"><text x="0" y="12.390624690055848" style="font: 13px sans-serif" text-anchor="start" fill="-moz-DialogText" stroke="none" transform="matrix(1, 0, 0, 1, 0, 0)">自动驾驶Review</text><text x="0" y="28.911457610130313" style="font: 13px sans-serif" text-anchor="start" fill="-moz-DialogText" stroke="none" transform="matrix(1, 0, 0, 1, 0, 0)"></text></g><path d="M 0,1.5 L 92.79166412353516,1.5" fill="none" stroke="#a3aaa3" stroke-width="3" stroke-linecap="butt" stroke-linejoin="miter" stroke-miterlimit="10" transform="matrix(1, 0, 0, 1, 1.5, 34.54166584014893)"></path></g><g transform="matrix(1, 0, 0, 1, 80, 121.03541497230532)"><g transform="matrix(1, 0, 0, 1, 0, 0)"><text x="0" y="12.390624690055848" style="font: 13px sans-serif" text-anchor="start" fill="-moz-DialogText" stroke="none" transform="matrix(1, 0, 0, 1, 0, 0)">1 综述&amp;背景</text><text x="0" y="28.911457610130313" style="font: 13px sans-serif" text-anchor="start" fill="-moz-DialogText" stroke="none" transform="matrix(1, 0, 0, 1, 0, 0)"></text></g><path d="M 0,1.5 L 71.79166412353516,1.5" fill="none" stroke="#b383c8" stroke-width="3" stroke-linecap="butt" stroke-linejoin="miter" stroke-miterlimit="10" transform="matrix(1, 0, 0, 1, 1.5, 34.54166584014893)"></path></g><g transform="matrix(1, 0, 0, 1, 204.79166412353516, 47.23333267211916)"><g transform="matrix(1, 0, 0, 1, 0, 0)"><text x="0" y="12.390624690055848" style="font: 13px sans-serif" text-anchor="start" fill="-moz-DialogText" stroke="none" transform="matrix(1, 0, 0, 1, 0, 0)">1.1 美国SAE标准</text><text x="0" y="28.911457610130313" style="font: 13px sans-serif" text-anchor="start" fill="-moz-DialogText" stroke="none" transform="matrix(1, 0, 0, 1, 0, 0)"></text></g><path d="M 0,1.5 L 95.02083587646484,1.5" fill="none" stroke="#d4c3f8" stroke-width="3" stroke-linecap="butt" stroke-linejoin="miter" stroke-miterlimit="10" transform="matrix(1, 0, 0, 1, 1.5, 34.54166584014893)"></path></g><g transform="matrix(1, 0, 0, 1, 352.8125, 17.712499752044696)"><g transform="matrix(1, 0, 0, 1, 0, 0)"><text x="0" y="12.390624690055848" style="font: 13px sans-serif" text-anchor="start" fill="-moz-DialogText" stroke="none" transform="matrix(1, 0, 0, 1, 0, 0)">Level 4：高度自动化</text><text x="0" y="28.911457610130313" style="font: 13px sans-serif" text-anchor="start" fill="-moz-DialogText" stroke="none" transform="matrix(1, 0, 0, 1, 0, 0)"></text></g><path d="M 0,1.5 L 118.1875,1.5" fill="none" stroke="#dade88" stroke-width="3" stroke-linecap="butt" stroke-linejoin="miter" stroke-miterlimit="10" transform="matrix(1, 0, 0, 1, 1.5, 34.54166584014893)"></path></g><g transform="matrix(1, 0, 0, 1, 352.8125, 76.75416559219363)"><g transform="matrix(1, 0, 0, 1, 0, 0)"><text x="0" y="12.390624690055848" style="font: 13px sans-serif" text-anchor="start" fill="-moz-DialogText" stroke="none" transform="matrix(1, 0, 0, 1, 0, 0)">Level 5：完全自动化</text><text x="0" y="28.911457610130313" style="font: 13px sans-serif" text-anchor="start" fill="-moz-DialogText" stroke="none" transform="matrix(1, 0, 0, 1, 0, 0)"></text></g><path d="M 0,1.5 L 118.1875,1.5" fill="none" stroke="#aa94aa" stroke-width="3" stroke-linecap="butt" stroke-linejoin="miter" stroke-miterlimit="10" transform="matrix(1, 0, 0, 1, 1.5, 34.54166584014893)"></path></g><g transform="matrix(1, 0, 0, 1, 204.79166412353516, 135.79583143234254)"><g transform="matrix(1, 0, 0, 1, 0, 0)"><text x="0" y="12.390624690055848" style="font: 13px sans-serif" text-anchor="start" fill="-moz-DialogText" stroke="none" transform="matrix(1, 0, 0, 1, 0, 0)">1.2 无人驾驶技术</text><text x="0" y="28.911457610130313" style="font: 13px sans-serif" text-anchor="start" fill="-moz-DialogText" stroke="none" transform="matrix(1, 0, 0, 1, 0, 0)"></text></g><path d="M 0,1.5 L 97.22916412353516,1.5" fill="none" stroke="#ccbb8e" stroke-width="3" stroke-linecap="butt" stroke-linejoin="miter" stroke-miterlimit="10" transform="matrix(1, 0, 0, 1, 1.5, 34.54166584014893)"></path></g><g transform="matrix(1, 0, 0, 1, 355.0208282470703, 135.79583143234254)"><g transform="matrix(1, 0, 0, 1, 0, 0)"><text x="0" y="12.390624690055848" style="font: 13px sans-serif" text-anchor="start" fill="-moz-DialogText" stroke="none" transform="matrix(1, 0, 0, 1, 0, 0)">关系：环境感知-&gt;决策规划-&gt;控制执行-&gt;环境感知（环形）</text><text x="0" y="28.911457610130313" style="font: 13px sans-serif" text-anchor="start" fill="-moz-DialogText" stroke="none" transform="matrix(1, 0, 0, 1, 0, 0)"></text></g><path d="M 0,1.5 L 341.8125,1.5" fill="none" stroke="#d4e2ea" stroke-width="3" stroke-linecap="butt" stroke-linejoin="miter" stroke-miterlimit="10" transform="matrix(1, 0, 0, 1, 1.5, 34.54166584014893)"></path></g><g transform="matrix(1, 0, 0, 1, 204.79166412353516, 194.83749727249148)"><g transform="matrix(1, 0, 0, 1, 0, 0)"><text x="0" y="12.390624690055848" style="font: 13px sans-serif" text-anchor="start" fill="-moz-DialogText" stroke="none" transform="matrix(1, 0, 0, 1, 0, 0)">1.3 发展时间</text><text x="0" y="28.911457610130313" style="font: 13px sans-serif" text-anchor="start" fill="-moz-DialogText" stroke="none" transform="matrix(1, 0, 0, 1, 0, 0)"></text></g><path d="M 0,1.5 L 71.22916412353516,1.5" fill="none" stroke="#97e3ba" stroke-width="3" stroke-linecap="butt" stroke-linejoin="miter" stroke-miterlimit="10" transform="matrix(1, 0, 0, 1, 1.5, 34.54166584014893)"></path></g><g transform="matrix(1, 0, 0, 1, 80, 643.5406157636643)"><g transform="matrix(1, 0, 0, 1, 0, 0)"><text x="0" y="12.390624690055848" style="font: 13px sans-serif" text-anchor="start" fill="-moz-DialogText" stroke="none" transform="matrix(1, 0, 0, 1, 0, 0)">2 技术</text><text x="0" y="28.911457610130313" style="font: 13px sans-serif" text-anchor="start" fill="-moz-DialogText" stroke="none" transform="matrix(1, 0, 0, 1, 0, 0)"></text></g><path d="M 0,1.5 L 34.47916793823242,1.5" fill="none" stroke="#9ccba9" stroke-width="3" stroke-linecap="butt" stroke-linejoin="miter" stroke-miterlimit="10" transform="matrix(1, 0, 0, 1, 1.5, 34.54166584014893)"></path></g><g transform="matrix(1, 0, 0, 1, 167.47916793823242, 321.18124541282657)"><g transform="matrix(1, 0, 0, 1, 0, 0)"><text x="0" y="12.390624690055848" style="font: 13px sans-serif" text-anchor="start" fill="-moz-DialogText" stroke="none" transform="matrix(1, 0, 0, 1, 0, 0)">2.1 概述</text><text x="0" y="28.911457610130313" style="font: 13px sans-serif" text-anchor="start" fill="-moz-DialogText" stroke="none" transform="matrix(1, 0, 0, 1, 0, 0)"></text></g><path d="M 0,1.5 L 45.22916793823242,1.5" fill="none" stroke="#ee8582" stroke-width="3" stroke-linecap="butt" stroke-linejoin="miter" stroke-miterlimit="10" transform="matrix(1, 0, 0, 1, 1.5, 34.54166584014893)"></path></g><g transform="matrix(1, 0, 0, 1, 167.47916793823242, 380.2229112529755)"><g transform="matrix(1, 0, 0, 1, 0, 0)"><text x="0" y="12.390624690055848" style="font: 13px sans-serif" text-anchor="start" fill="-moz-DialogText" stroke="none" transform="matrix(1, 0, 0, 1, 0, 0)">2.2 感知</text><text x="0" y="28.911457610130313" style="font: 13px sans-serif" text-anchor="start" fill="-moz-DialogText" stroke="none" transform="matrix(1, 0, 0, 1, 0, 0)"></text></g><path d="M 0,1.5 L 45.22916793823242,1.5" fill="none" stroke="#8ab594" stroke-width="3" stroke-linecap="butt" stroke-linejoin="miter" stroke-miterlimit="10" transform="matrix(1, 0, 0, 1, 1.5, 34.54166584014893)"></path></g><g transform="matrix(1, 0, 0, 1, 265.70833587646484, 253.8791631126404)"><g transform="matrix(1, 0, 0, 1, 0, 0)"><text x="0" y="12.390624690055848" style="font: 13px sans-serif" text-anchor="start" fill="-moz-DialogText" stroke="none" transform="matrix(1, 0, 0, 1, 0, 0)">摄像机（CCD;CMOS）</text><text x="0" y="28.911457610130313" style="font: 13px sans-serif" text-anchor="start" fill="-moz-DialogText" stroke="none" transform="matrix(1, 0, 0, 1, 0, 0)"></text></g><path d="M 0,1.5 L 131.8958282470703,1.5" fill="none" stroke="#9df0fb" stroke-width="3" stroke-linecap="butt" stroke-linejoin="miter" stroke-miterlimit="10" transform="matrix(1, 0, 0, 1, 1.5, 34.54166584014893)"></path></g><g transform="matrix(1, 0, 0, 1, 265.70833587646484, 312.92082895278935)"><g transform="matrix(1, 0, 0, 1, 0, 0)"><text x="0" y="12.390624690055848" style="font: 13px sans-serif" text-anchor="start" fill="-moz-DialogText" stroke="none" transform="matrix(1, 0, 0, 1, 0, 0)">激光雷达：探测目标空间位置（单线；多线，点云描述）。激光雷达发出的线 束越多,每秒采集的点云越多,同</text><text x="0" y="28.911457610130313" style="font: 13px sans-serif" text-anchor="start" fill="-moz-DialogText" stroke="none" transform="matrix(1, 0, 0, 1, 0, 0)">时造价也越高</text><text x="0" y="45.43229053020478" style="font: 13px sans-serif" text-anchor="start" fill="-moz-DialogText" stroke="none" transform="matrix(1, 0, 0, 1, 0, 0)"></text></g><path d="M 0,1.5 L 618.1041870117188,1.5" fill="none" stroke="#bf81c3" stroke-width="3" stroke-linecap="butt" stroke-linejoin="miter" stroke-miterlimit="10" transform="matrix(1, 0, 0, 1, 1.5, 51.06249876022339)"></path></g><g transform="matrix(1, 0, 0, 1, 265.70833587646484, 388.4833277130127)"><g transform="matrix(1, 0, 0, 1, 0, 0)"><text x="0" y="12.390624690055848" style="font: 13px sans-serif" text-anchor="start" fill="-moz-DialogText" stroke="none" transform="matrix(1, 0, 0, 1, 0, 0)">毫米波雷达：指工作在毫米波波段。频率在 30—300GHz 之间的雷达（脉冲方式；调频连续波方式）</text><text x="0" y="28.911457610130313" style="font: 13px sans-serif" text-anchor="start" fill="-moz-DialogText" stroke="none" transform="matrix(1, 0, 0, 1, 0, 0)"></text></g><path d="M 0,1.5 L 577,1.5" fill="none" stroke="#9ef7d4" stroke-width="3" stroke-linecap="butt" stroke-linejoin="miter" stroke-miterlimit="10" transform="matrix(1, 0, 0, 1, 1.5, 34.54166584014893)"></path></g><g transform="matrix(1, 0, 0, 1, 265.70833587646484, 447.52499355316166)"><g transform="matrix(1, 0, 0, 1, 0, 0)"><text x="0" y="12.390624690055848" style="font: 13px sans-serif" text-anchor="start" fill="-moz-DialogText" stroke="none" transform="matrix(1, 0, 0, 1, 0, 0)">超声波传感器：近距离障碍物检测</text><text x="0" y="28.911457610130313" style="font: 13px sans-serif" text-anchor="start" fill="-moz-DialogText" stroke="none" transform="matrix(1, 0, 0, 1, 0, 0)"></text></g><path d="M 0,1.5 L 192,1.5" fill="none" stroke="#dbfcdd" stroke-width="3" stroke-linecap="butt" stroke-linejoin="miter" stroke-miterlimit="10" transform="matrix(1, 0, 0, 1, 1.5, 34.54166584014893)"></path></g><g transform="matrix(1, 0, 0, 1, 265.70833587646484, 506.5666593933106)"><g transform="matrix(1, 0, 0, 1, 0, 0)"><text x="0" y="12.390624690055848" style="font: 13px sans-serif" text-anchor="start" fill="-moz-DialogText" stroke="none" transform="matrix(1, 0, 0, 1, 0, 0)">技术方案：</text><text x="0" y="28.911457610130313" style="font: 13px sans-serif" text-anchor="start" fill="-moz-DialogText" stroke="none" transform="matrix(1, 0, 0, 1, 0, 0)"></text></g><path d="M 0,1.5 L 62,1.5" fill="none" stroke="#fbdcca" stroke-width="3" stroke-linecap="butt" stroke-linejoin="miter" stroke-miterlimit="10" transform="matrix(1, 0, 0, 1, 1.5, 34.54166584014893)"></path></g><g transform="matrix(1, 0, 0, 1, 167.47916793823242, 662.4312404537202)"><g transform="matrix(1, 0, 0, 1, 0, 0)"><text x="0" y="12.390624690055848" style="font: 13px sans-serif" text-anchor="start" fill="-moz-DialogText" stroke="none" transform="matrix(1, 0, 0, 1, 0, 0)">2.3 定位</text><text x="0" y="28.911457610130313" style="font: 13px sans-serif" text-anchor="start" fill="-moz-DialogText" stroke="none" transform="matrix(1, 0, 0, 1, 0, 0)"></text></g><path d="M 0,1.5 L 45.22916793823242,1.5" fill="none" stroke="#e78589" stroke-width="3" stroke-linecap="butt" stroke-linejoin="miter" stroke-miterlimit="10" transform="matrix(1, 0, 0, 1, 1.5, 34.54166584014893)"></path></g><g transform="matrix(1, 0, 0, 1, 265.70833587646484, 565.6083252334596)"><g transform="matrix(1, 0, 0, 1, 0, 0)"><text x="0" y="12.390624690055848" style="font: 13px sans-serif" text-anchor="start" fill="-moz-DialogText" stroke="none" transform="matrix(1, 0, 0, 1, 0, 0)">1.惯性导航系统：陀螺仪+加速度计</text><text x="0" y="28.911457610130313" style="font: 13px sans-serif" text-anchor="start" fill="-moz-DialogText" stroke="none" transform="matrix(1, 0, 0, 1, 0, 0)"></text></g><path d="M 0,1.5 L 199.3958282470703,1.5" fill="none" stroke="#e0f3ec" stroke-width="3" stroke-linecap="butt" stroke-linejoin="miter" stroke-miterlimit="10" transform="matrix(1, 0, 0, 1, 1.5, 34.54166584014893)"></path></g><g transform="matrix(1, 0, 0, 1, 265.70833587646484, 624.6499910736085)"><g transform="matrix(1, 0, 0, 1, 0, 0)"><text x="0" y="12.390624690055848" style="font: 13px sans-serif" text-anchor="start" fill="-moz-DialogText" stroke="none" transform="matrix(1, 0, 0, 1, 0, 0)">2.轮速编码器与航迹推算</text><text x="0" y="28.911457610130313" style="font: 13px sans-serif" text-anchor="start" fill="-moz-DialogText" stroke="none" transform="matrix(1, 0, 0, 1, 0, 0)"></text></g><path d="M 0,1.5 L 137.75,1.5" fill="none" stroke="#c1dab2" stroke-width="3" stroke-linecap="butt" stroke-linejoin="miter" stroke-miterlimit="10" transform="matrix(1, 0, 0, 1, 1.5, 34.54166584014893)"></path></g><g transform="matrix(1, 0, 0, 1, 265.70833587646484, 683.6916569137575)"><g transform="matrix(1, 0, 0, 1, 0, 0)"><text x="0" y="12.390624690055848" style="font: 13px sans-serif" text-anchor="start" fill="-moz-DialogText" stroke="none" transform="matrix(1, 0, 0, 1, 0, 0)">3.卫星导航系统</text><text x="0" y="28.911457610130313" style="font: 13px sans-serif" text-anchor="start" fill="-moz-DialogText" stroke="none" transform="matrix(1, 0, 0, 1, 0, 0)"></text></g><path d="M 0,1.5 L 85.75,1.5" fill="none" stroke="#c09c95" stroke-width="3" stroke-linecap="butt" stroke-linejoin="miter" stroke-miterlimit="10" transform="matrix(1, 0, 0, 1, 1.5, 34.54166584014893)"></path></g><g transform="matrix(1, 0, 0, 1, 265.70833587646484, 742.7333227539064)"><g transform="matrix(1, 0, 0, 1, 0, 0)"><text x="0" y="12.390624690055848" style="font: 13px sans-serif" text-anchor="start" fill="-moz-DialogText" stroke="none" transform="matrix(1, 0, 0, 1, 0, 0)">4.SLAM自主导航系统：SLAM（Simultaneous Localization And Ma</text><text x="0" y="28.911457610130313" style="font: 13px sans-serif" text-anchor="start" fill="-moz-DialogText" stroke="none" transform="matrix(1, 0, 0, 1, 0, 0)">pping，即时定位与地图构建）（基于激光雷达；基于视觉）</text><text x="0" y="45.43229053020478" style="font: 13px sans-serif" text-anchor="start" fill="-moz-DialogText" stroke="none" transform="matrix(1, 0, 0, 1, 0, 0)"></text></g><path d="M 0,1.5 L 398.8125,1.5" fill="none" stroke="#b5b7f1" stroke-width="3" stroke-linecap="butt" stroke-linejoin="miter" stroke-miterlimit="10" transform="matrix(1, 0, 0, 1, 1.5, 51.06249876022339)"></path></g><g transform="matrix(1, 0, 0, 1, 167.47916793823242, 847.8166544342041)"><g transform="matrix(1, 0, 0, 1, 0, 0)"><text x="0" y="12.390624690055848" style="font: 13px sans-serif" text-anchor="start" fill="-moz-DialogText" stroke="none" transform="matrix(1, 0, 0, 1, 0, 0)">2.4 决策规划</text><text x="0" y="28.911457610130313" style="font: 13px sans-serif" text-anchor="start" fill="-moz-DialogText" stroke="none" transform="matrix(1, 0, 0, 1, 0, 0)"></text></g><path d="M 0,1.5 L 71.22916412353516,1.5" fill="none" stroke="#c696c1" stroke-width="3" stroke-linecap="butt" stroke-linejoin="miter" stroke-miterlimit="10" transform="matrix(1, 0, 0, 1, 1.5, 34.54166584014893)"></path></g><g transform="matrix(1, 0, 0, 1, 291.7083320617676, 818.2958215141297)"><g transform="matrix(1, 0, 0, 1, 0, 0)"><text x="0" y="12.390624690055848" style="font: 13px sans-serif" text-anchor="start" fill="-moz-DialogText" stroke="none" transform="matrix(1, 0, 0, 1, 0, 0)">局部路径规划；全局路径规划</text><text x="0" y="28.911457610130313" style="font: 13px sans-serif" text-anchor="start" fill="-moz-DialogText" stroke="none" transform="matrix(1, 0, 0, 1, 0, 0)"></text></g><path d="M 0,1.5 L 166,1.5" fill="none" stroke="#cac8ba" stroke-width="3" stroke-linecap="butt" stroke-linejoin="miter" stroke-miterlimit="10" transform="matrix(1, 0, 0, 1, 1.5, 34.54166584014893)"></path></g><g transform="matrix(1, 0, 0, 1, 291.7083320617676, 877.3374873542786)"><g transform="matrix(1, 0, 0, 1, 0, 0)"><text x="0" y="12.390624690055848" style="font: 13px sans-serif" text-anchor="start" fill="-moz-DialogText" stroke="none" transform="matrix(1, 0, 0, 1, 0, 0)">芯片：英特尔；英伟达</text><text x="0" y="28.911457610130313" style="font: 13px sans-serif" text-anchor="start" fill="-moz-DialogText" stroke="none" transform="matrix(1, 0, 0, 1, 0, 0)"></text></g><path d="M 0,1.5 L 127,1.5" fill="none" stroke="#d4be9e" stroke-width="3" stroke-linecap="butt" stroke-linejoin="miter" stroke-miterlimit="10" transform="matrix(1, 0, 0, 1, 1.5, 34.54166584014893)"></path></g><g transform="matrix(1, 0, 0, 1, 167.47916793823242, 906.8583202743531)"><g transform="matrix(1, 0, 0, 1, 0, 0)"><text x="0" y="12.390624690055848" style="font: 13px sans-serif" text-anchor="start" fill="-moz-DialogText" stroke="none" transform="matrix(1, 0, 0, 1, 0, 0)">2.5 控制执行</text><text x="0" y="28.911457610130313" style="font: 13px sans-serif" text-anchor="start" fill="-moz-DialogText" stroke="none" transform="matrix(1, 0, 0, 1, 0, 0)"></text></g><path d="M 0,1.5 L 71.22916412353516,1.5" fill="none" stroke="#daaef6" stroke-width="3" stroke-linecap="butt" stroke-linejoin="miter" stroke-miterlimit="10" transform="matrix(1, 0, 0, 1, 1.5, 34.54166584014893)"></path></g><g transform="matrix(1, 0, 0, 1, 167.47916793823242, 965.899986114502)"><g transform="matrix(1, 0, 0, 1, 0, 0)"><text x="0" y="12.390624690055848" style="font: 13px sans-serif" text-anchor="start" fill="-moz-DialogText" stroke="none" transform="matrix(1, 0, 0, 1, 0, 0)">2.5 地图</text><text x="0" y="28.911457610130313" style="font: 13px sans-serif" text-anchor="start" fill="-moz-DialogText" stroke="none" transform="matrix(1, 0, 0, 1, 0, 0)"></text></g><path d="M 0,1.5 L 45.22916793823242,1.5" fill="none" stroke="#8adedf" stroke-width="3" stroke-linecap="butt" stroke-linejoin="miter" stroke-miterlimit="10" transform="matrix(1, 0, 0, 1, 1.5, 34.54166584014893)"></path></g><g transform="matrix(1, 0, 0, 1, 26.5, 34.54166584014893)"><path d="M -2,313.50989142179486 C 10,313.50989142179486 40,0 52,0" fill="none" stroke="#a3aaa3" stroke-width="3" stroke-linecap="butt" stroke-linejoin="miter" stroke-miterlimit="10" transform="matrix(1, 0, 0, 1, 3.5, 1.5)"></path></g><g transform="matrix(1, 0, 0, 1, 26.5, 155.57708081245426)"><path d="M -2,192.47447644948954 C 10,192.47447644948954 40,0 52,0" fill="none" stroke="#b383c8" stroke-width="3" stroke-linecap="butt" stroke-linejoin="miter" stroke-miterlimit="10" transform="matrix(1, 0, 0, 1, 3.5, 1.5)"></path></g><g transform="matrix(1, 0, 0, 1, 151.29166412353516, 81.7749985122681)"><path d="M -2,73.80208230018616 C 10,73.80208230018616 40,0 52,0" fill="none" stroke="#d4c3f8" stroke-width="3" stroke-linecap="butt" stroke-linejoin="miter" stroke-miterlimit="10" transform="matrix(1, 0, 0, 1, 3.5, 1.5)"></path></g><g transform="matrix(1, 0, 0, 1, 299.3125, 52.25416559219363)"><path d="M -2,29.52083292007447 C 10,29.52083292007447 40,0 52,0" fill="none" stroke="#dade88" stroke-width="3" stroke-linecap="butt" stroke-linejoin="miter" stroke-miterlimit="10" transform="matrix(1, 0, 0, 1, 3.5, 1.5)"></path></g><g transform="matrix(1, 0, 0, 1, 299.3125, 81.7749985122681)"><path d="M -2,0 C 10,0 40,29.52083292007447 52,29.52083292007447" fill="none" stroke="#aa94aa" stroke-width="3" stroke-linecap="butt" stroke-linejoin="miter" stroke-miterlimit="10" transform="matrix(1, 0, 0, 1, 3.5, 1.5)"></path></g><g transform="matrix(1, 0, 0, 1, 151.29166412353516, 155.57708081245426)"><path d="M -2,0 C 10,0 40,14.76041646003722 52,14.76041646003722" fill="none" stroke="#ccbb8e" stroke-width="3" stroke-linecap="butt" stroke-linejoin="miter" stroke-miterlimit="10" transform="matrix(1, 0, 0, 1, 3.5, 1.5)"></path></g><g transform="matrix(1, 0, 0, 1, 301.5208282470703, 170.33749727249148)"><path d="M -2,0 C 10,0 40,0 52,0" fill="none" stroke="#d4e2ea" stroke-width="3" stroke-linecap="butt" stroke-linejoin="miter" stroke-miterlimit="10" transform="matrix(1, 0, 0, 1, 3.5, 1.5)"></path></g><g transform="matrix(1, 0, 0, 1, 151.29166412353516, 155.57708081245426)"><path d="M -2,0 C 10,0 40,73.80208230018616 52,73.80208230018616" fill="none" stroke="#97e3ba" stroke-width="3" stroke-linecap="butt" stroke-linejoin="miter" stroke-miterlimit="10" transform="matrix(1, 0, 0, 1, 3.5, 1.5)"></path></g><g transform="matrix(1, 0, 0, 1, 26.5, 348.0515572619438)"><path d="M -2,0 C 10,0 40,330.03072434186936 52,330.03072434186936" fill="none" stroke="#9ccba9" stroke-width="3" stroke-linecap="butt" stroke-linejoin="miter" stroke-miterlimit="10" transform="matrix(1, 0, 0, 1, 3.5, 1.5)"></path></g><g transform="matrix(1, 0, 0, 1, 113.97916793823242, 355.7229112529755)"><path d="M -2,322.35937035083765 C 10,322.35937035083765 40,0 52,0" fill="none" stroke="#ee8582" stroke-width="3" stroke-linecap="butt" stroke-linejoin="miter" stroke-miterlimit="10" transform="matrix(1, 0, 0, 1, 3.5, 1.5)"></path></g><g transform="matrix(1, 0, 0, 1, 113.97916793823242, 414.76457709312444)"><path d="M -2,263.3177045106887 C 10,263.3177045106887 40,0 52,0" fill="none" stroke="#8ab594" stroke-width="3" stroke-linecap="butt" stroke-linejoin="miter" stroke-miterlimit="10" transform="matrix(1, 0, 0, 1, 3.5, 1.5)"></path></g><g transform="matrix(1, 0, 0, 1, 212.20833587646484, 288.42082895278935)"><path d="M -2,126.3437481403351 C 10,126.3437481403351 40,0 52,0" fill="none" stroke="#9df0fb" stroke-width="3" stroke-linecap="butt" stroke-linejoin="miter" stroke-miterlimit="10" transform="matrix(1, 0, 0, 1, 3.5, 1.5)"></path></g><g transform="matrix(1, 0, 0, 1, 212.20833587646484, 363.9833277130127)"><path d="M -2,50.78124938011172 C 10,50.78124938011172 40,0 52,0" fill="none" stroke="#bf81c3" stroke-width="3" stroke-linecap="butt" stroke-linejoin="miter" stroke-miterlimit="10" transform="matrix(1, 0, 0, 1, 3.5, 1.5)"></path></g><g transform="matrix(1, 0, 0, 1, 212.20833587646484, 414.76457709312444)"><path d="M -2,0 C 10,0 40,8.26041646003722 52,8.26041646003722" fill="none" stroke="#9ef7d4" stroke-width="3" stroke-linecap="butt" stroke-linejoin="miter" stroke-miterlimit="10" transform="matrix(1, 0, 0, 1, 3.5, 1.5)"></path></g><g transform="matrix(1, 0, 0, 1, 212.20833587646484, 414.76457709312444)"><path d="M -2,0 C 10,0 40,67.30208230018616 52,67.30208230018616" fill="none" stroke="#dbfcdd" stroke-width="3" stroke-linecap="butt" stroke-linejoin="miter" stroke-miterlimit="10" transform="matrix(1, 0, 0, 1, 3.5, 1.5)"></path></g><g transform="matrix(1, 0, 0, 1, 212.20833587646484, 414.76457709312444)"><path d="M -2,0 C 10,0 40,126.34374814033504 52,126.34374814033504" fill="none" stroke="#fbdcca" stroke-width="3" stroke-linecap="butt" stroke-linejoin="miter" stroke-miterlimit="10" transform="matrix(1, 0, 0, 1, 3.5, 1.5)"></path></g><g transform="matrix(1, 0, 0, 1, 113.97916793823242, 678.0822816038132)"><path d="M -2,0 C 10,0 40,18.890624690055915 52,18.890624690055915" fill="none" stroke="#e78589" stroke-width="3" stroke-linecap="butt" stroke-linejoin="miter" stroke-miterlimit="10" transform="matrix(1, 0, 0, 1, 3.5, 1.5)"></path></g><g transform="matrix(1, 0, 0, 1, 212.20833587646484, 600.1499910736085)"><path d="M -2,96.8229152202606 C 10,96.8229152202606 40,0 52,0" fill="none" stroke="#e0f3ec" stroke-width="3" stroke-linecap="butt" stroke-linejoin="miter" stroke-miterlimit="10" transform="matrix(1, 0, 0, 1, 3.5, 1.5)"></path></g><g transform="matrix(1, 0, 0, 1, 212.20833587646484, 659.1916569137574)"><path d="M -2,37.78124938011172 C 10,37.78124938011172 40,0 52,0" fill="none" stroke="#c1dab2" stroke-width="3" stroke-linecap="butt" stroke-linejoin="miter" stroke-miterlimit="10" transform="matrix(1, 0, 0, 1, 3.5, 1.5)"></path></g><g transform="matrix(1, 0, 0, 1, 212.20833587646484, 696.9729062938691)"><path d="M -2,0 C 10,0 40,21.260416460037277 52,21.260416460037277" fill="none" stroke="#c09c95" stroke-width="3" stroke-linecap="butt" stroke-linejoin="miter" stroke-miterlimit="10" transform="matrix(1, 0, 0, 1, 3.5, 1.5)"></path></g><g transform="matrix(1, 0, 0, 1, 212.20833587646484, 696.9729062938691)"><path d="M -2,0 C 10,0 40,96.82291522026071 52,96.82291522026071" fill="none" stroke="#b5b7f1" stroke-width="3" stroke-linecap="butt" stroke-linejoin="miter" stroke-miterlimit="10" transform="matrix(1, 0, 0, 1, 3.5, 1.5)"></path></g><g transform="matrix(1, 0, 0, 1, 113.97916793823242, 678.0822816038132)"><path d="M -2,0 C 10,0 40,204.27603867053983 52,204.27603867053983" fill="none" stroke="#c696c1" stroke-width="3" stroke-linecap="butt" stroke-linejoin="miter" stroke-miterlimit="10" transform="matrix(1, 0, 0, 1, 3.5, 1.5)"></path></g><g transform="matrix(1, 0, 0, 1, 238.20833206176758, 852.8374873542786)"><path d="M -2,29.52083292007444 C 10,29.52083292007444 40,0 52,0" fill="none" stroke="#cac8ba" stroke-width="3" stroke-linecap="butt" stroke-linejoin="miter" stroke-miterlimit="10" transform="matrix(1, 0, 0, 1, 3.5, 1.5)"></path></g><g transform="matrix(1, 0, 0, 1, 238.20833206176758, 882.358320274353)"><path d="M -2,0 C 10,0 40,29.52083292007444 52,29.52083292007444" fill="none" stroke="#d4be9e" stroke-width="3" stroke-linecap="butt" stroke-linejoin="miter" stroke-miterlimit="10" transform="matrix(1, 0, 0, 1, 3.5, 1.5)"></path></g><g transform="matrix(1, 0, 0, 1, 113.97916793823242, 678.0822816038132)"><path d="M -2,0 C 10,0 40,263.3177045106888 52,263.3177045106888" fill="none" stroke="#daaef6" stroke-width="3" stroke-linecap="butt" stroke-linejoin="miter" stroke-miterlimit="10" transform="matrix(1, 0, 0, 1, 3.5, 1.5)"></path></g><g transform="matrix(1, 0, 0, 1, 113.97916793823242, 678.0822816038132)"><path d="M -2,0 C 10,0 40,322.3593703508377 52,322.3593703508377" fill="none" stroke="#8adedf" stroke-width="3" stroke-linecap="butt" stroke-linejoin="miter" stroke-miterlimit="10" transform="matrix(1, 0, 0, 1, 3.5, 1.5)"></path></g></g></g><clipPath id="mainClip14379"><rect x="0" y="0" width="889px" height="1007px"></rect></clipPath></svg>